<?xml version="1.0" standalone="no"?>
<!DOCTYPE svg PUBLIC "-//W3C//DTD SVG 20010904//EN"
 "http://www.w3.org/TR/2001/REC-SVG-20010904/DTD/svg10.dtd">
<svg version="1.0" xmlns="http://www.w3.org/2000/svg"
 width="512.000000pt" height="512.000000pt" viewBox="0 0 512.000000 512.000000"
 preserveAspectRatio="xMidYMid meet">

<g transform="translate(0.000000,512.000000) scale(0.100000,-0.100000)"
fill="#000000" stroke="none">
<path d="M2390 5113 c-476 -48 -891 -243 -1220 -573 -300 -300 -484 -660 -557
-1090 -24 -143 -24 -454 0 -597 57 -337 183 -631 385 -898 106 -140 302 -323
465 -435 121 -83 157 -130 330 -437 86 -154 166 -288 175 -297 10 -9 35 -16
55 -16 41 0 67 27 67 71 0 37 -310 583 -376 663 -34 41 -93 92 -166 143 -241
171 -410 348 -545 574 -66 110 -77 132 -127 258 -141 350 -167 747 -75 1116
159 634 679 1153 1314 1314 217 55 504 69 710 36 598 -96 1095 -463 1359
-1002 281 -574 235 -1257 -119 -1789 -132 -198 -279 -348 -487 -496 -114 -80
-185 -148 -231 -221 -18 -29 -185 -321 -372 -650 -213 -378 -347 -605 -363
-615 -30 -19 -85 -19 -115 1 -12 8 -74 106 -137 218 -63 112 -126 216 -141
231 -43 44 -96 34 -119 -22 -11 -27 -10 -36 15 -83 75 -145 232 -410 259 -437
98 -101 261 -103 359 -5 30 29 131 200 351 591 373 661 399 705 438 750 17 19
83 72 147 118 304 219 497 445 651 761 94 192 148 362 182 570 17 107 17 475
-1 580 -55 332 -183 632 -384 900 -76 102 -268 293 -373 372 -281 213 -615
348 -961 388 -116 14 -302 17 -393 8z"/>
<path d="M2336 4614 c-480 -75 -881 -367 -1100 -801 -317 -627 -133 -1408 431
-1832 356 -268 795 -361 1228 -261 561 130 982 564 1107 1143 30 138 33 447 5
577 -59 283 -186 527 -377 724 -190 197 -391 325 -626 399 -90 29 -229 57
-278 57 -44 0 -76 -35 -76 -82 0 -52 30 -72 142 -92 174 -32 348 -102 499
-201 96 -64 282 -249 347 -346 263 -393 303 -876 107 -1295 -201 -431 -605
-712 -1083 -753 -648 -57 -1240 379 -1387 1020 -59 259 -29 563 80 810 179
408 541 689 988 769 94 17 116 24 135 45 27 32 28 64 2 97 -26 33 -49 37 -144
22z"/>
<path d="M3056 4220 c-66 -26 -94 -54 -324 -332 l-197 -238 -96 0 c-104 0
-180 -17 -223 -51 l-26 -20 -54 26 c-53 26 -56 26 -243 23 -186 -3 -190 -3
-230 -30 -26 -17 -50 -45 -67 -79 l-26 -53 0 -516 0 -516 25 -51 c17 -33 41
-61 68 -79 l42 -29 200 0 c173 0 204 2 233 18 32 18 33 17 65 -7 74 -57 68
-56 575 -56 507 0 515 1 625 56 63 32 160 130 193 195 54 108 57 124 61 436 5
318 -2 404 -42 491 -47 102 -177 209 -277 227 -21 4 -38 11 -38 15 0 4 25 38
56 76 75 91 94 137 94 227 0 92 -29 157 -94 214 -82 72 -198 93 -300 53z m159
-154 c61 -26 94 -112 64 -169 -7 -12 -42 -58 -78 -102 -103 -125 -117 -163
-84 -232 21 -46 63 -70 132 -79 31 -3 70 -12 87 -19 49 -20 105 -76 130 -130
23 -49 24 -56 24 -366 0 -353 -2 -367 -68 -454 -27 -36 -56 -60 -106 -85 l-69
-35 -446 -3 c-314 -2 -453 1 -473 9 -15 6 -35 23 -45 38 -17 24 -18 62 -21
483 -3 493 -2 509 50 541 16 10 62 16 150 19 95 4 133 9 152 21 14 10 125 137
246 283 252 303 269 316 355 280z m-1152 -607 c12 -7 25 -17 29 -23 4 -6 8
-226 8 -488 l0 -477 -26 -20 c-24 -19 -40 -21 -170 -21 -140 0 -144 1 -159 24
-14 20 -15 84 -13 510 3 420 5 488 18 496 22 14 286 13 313 -1z"/>
</g>
</svg>
