<?xml version="1.0" standalone="no"?>
<!DOCTYPE svg PUBLIC "-//W3C//DTD SVG 20010904//EN"
 "http://www.w3.org/TR/2001/REC-SVG-20010904/DTD/svg10.dtd">
<svg version="1.0" xmlns="http://www.w3.org/2000/svg"
 width="512.000000pt" height="512.000000pt" viewBox="0 0 512.000000 512.000000"
 preserveAspectRatio="xMidYMid meet">

<g transform="translate(0.000000,512.000000) scale(0.100000,-0.100000)"
fill="#000000" stroke="none">
<path d="M708 4834 c-174 -42 -321 -172 -387 -343 l-26 -66 -3 -1340 c-2 -958
0 -1357 8 -1400 28 -149 146 -306 280 -372 128 -64 113 -63 886 -63 666 0 702
1 717 18 22 24 21 55 -1 75 -17 16 -80 17 -700 17 -466 0 -698 4 -734 11 -175
37 -309 179 -340 358 -35 203 101 419 300 477 30 9 111 19 182 23 118 6 131 9
169 35 25 18 50 48 66 79 l25 51 0 441 c0 415 -1 443 -18 458 -23 21 -56 22
-76 1 -14 -14 -16 -67 -16 -441 0 -465 -2 -480 -58 -501 -15 -6 -79 -13 -142
-15 -85 -3 -132 -10 -180 -26 -78 -27 -188 -99 -230 -149 l-30 -37 0 1115 c0
899 3 1125 14 1165 59 221 248 347 498 333 58 -3 72 -8 96 -31 l27 -27 5 -451
c4 -385 7 -451 20 -459 24 -15 55 -12 73 8 15 17 17 56 17 355 l0 337 1618 -2
1617 -3 55 -22 c111 -46 207 -142 253 -253 l22 -55 3 -1490 2 -1491 -58 56
c-32 30 -87 70 -123 87 -128 65 -99 63 -1017 63 -555 0 -840 -3 -853 -10 -26
-15 -26 -75 0 -90 13 -6 225 -10 620 -10 l601 0 0 -397 c0 -261 4 -412 11
-438 15 -52 82 -119 134 -134 25 -7 150 -11 336 -11 l295 0 51 25 c32 16 61
41 79 67 l29 41 3 1854 c2 2050 7 1909 -61 2038 -40 77 -145 182 -222 222
-128 67 -16 63 -1789 63 l-1606 0 0 43 c0 95 -47 173 -125 208 -50 23 -230 25
-317 3z m3664 -3595 c167 -35 302 -170 337 -337 17 -82 15 -436 -4 -471 -24
-47 -54 -51 -349 -51 -299 0 -309 2 -338 60 -16 31 -18 73 -18 416 0 209 3
384 7 387 11 11 308 8 365 -4z"/>
<path d="M3612 4268 c-17 -17 -15 -64 4 -82 13 -14 60 -16 357 -16 477 0 447
24 447 -357 l0 -253 26 -17 c24 -15 29 -15 53 -2 l26 15 0 279 c0 309 0 308
-67 375 -68 69 -73 70 -473 70 -268 0 -364 -3 -373 -12z"/>
<path d="M2796 3854 c-13 -13 -16 -44 -16 -185 l0 -169 -524 0 c-464 0 -526
-2 -540 -16 -14 -14 -16 -85 -16 -635 0 -409 4 -627 10 -640 10 -18 25 -19
340 -19 l330 0 0 -153 c0 -122 3 -157 16 -175 l15 -22 838 0 c964 0 871 -11
871 102 0 50 -4 69 -18 81 -39 36 -92 10 -92 -44 l0 -29 -755 0 -755 0 0 345
0 345 755 0 755 0 0 -173 c0 -156 2 -176 18 -190 23 -21 41 -21 70 -1 22 15
22 19 22 228 0 249 1 246 -93 246 l-57 0 0 543 c0 514 -1 545 -18 560 -15 13
-39 17 -115 17 -104 0 -127 -10 -127 -55 0 -40 25 -55 91 -55 l59 0 0 -505 0
-505 -485 0 -485 0 0 505 0 505 273 0 c253 0 275 1 290 18 21 23 22 56 1 76
-13 14 -57 16 -329 16 -272 0 -316 -2 -329 -16z m-16 -784 l0 -320 -180 0
c-167 0 -181 -1 -200 -20 -19 -19 -20 -33 -20 -225 l0 -205 -285 0 -285 0 0
545 0 545 485 0 485 0 0 -320z"/>
</g>
</svg>
