<?xml version="1.0" standalone="no"?>
<!DOCTYPE svg PUBLIC "-//W3C//DTD SVG 20010904//EN"
 "http://www.w3.org/TR/2001/REC-SVG-20010904/DTD/svg10.dtd">
<svg version="1.0" xmlns="http://www.w3.org/2000/svg"
 width="512.000000pt" height="512.000000pt" viewBox="0 0 512.000000 512.000000"
 preserveAspectRatio="xMidYMid meet">

<g transform="translate(0.000000,512.000000) scale(0.100000,-0.100000)"
fill="#000000" stroke="none">
<path d="M449 5105 c-40 -22 -51 -62 -47 -170 3 -92 4 -98 31 -121 19 -16 40
-24 67 -24 27 0 48 8 67 24 27 23 28 29 31 121 4 110 -7 149 -49 170 -35 19
-66 18 -100 0z"/>
<path d="M51 4707 c-48 -28 -63 -85 -36 -136 21 -42 60 -53 170 -49 92 3 98 4
121 31 33 38 33 96 0 134 -23 27 -28 28 -128 31 -73 1 -110 -2 -127 -11z"/>
<path d="M724 4710 c-56 -22 -72 -108 -30 -157 23 -27 29 -28 121 -31 61 -3
107 1 126 8 32 14 59 55 59 90 0 33 -26 75 -55 88 -30 14 -189 15 -221 2z"/>
<path d="M433 4426 c-27 -23 -28 -29 -31 -121 -4 -110 7 -149 49 -170 35 -19
63 -19 98 0 42 21 53 60 49 170 -3 92 -4 98 -31 121 -19 16 -40 24 -67 24 -27
0 -48 -8 -67 -24z"/>
<path d="M873 4127 c-27 -15 -861 -1161 -869 -1194 -4 -13 -3 -35 0 -50 10
-39 2490 -2519 2528 -2529 16 -3 40 -3 55 1 31 7 944 910 969 957 38 72 -7
148 -87 148 -43 0 -43 0 -361 -317 l-318 -317 331 992 331 992 661 0 662 0
-372 -373 c-204 -204 -376 -382 -382 -394 -44 -87 48 -175 134 -129 51 28 952
936 960 969 4 15 5 37 1 50 -8 33 -842 1179 -869 1194 -32 18 -3342 18 -3374
0z m1480 -200 c-24 -41 -607 -837 -613 -837 -6 0 -589 796 -613 837 -7 11 96
13 613 13 517 0 620 -2 613 -13z m1640 0 c-24 -41 -607 -837 -613 -837 -6 0
-589 796 -613 837 -7 11 96 13 613 13 517 0 620 -2 613 -13z m-2757 -492 l305
-420 -311 -3 c-170 -1 -450 -1 -620 0 l-310 3 306 423 c169 232 311 421 316
420 5 -2 146 -192 314 -423z m1640 0 l305 -420 -311 -3 c-170 -1 -450 -1 -620
0 l-310 3 306 423 c169 232 311 421 316 420 5 -2 146 -192 314 -423z m1640 0
l305 -420 -311 -3 c-170 -1 -450 -1 -620 0 l-310 3 306 423 c169 232 311 421
316 420 5 -2 146 -192 314 -423z m-2518 -1615 c182 -545 330 -990 329 -990 -1
0 -448 445 -992 990 l-990 990 662 0 661 0 330 -990z m1240 978 c-3 -7 -155
-464 -339 -1015 -184 -552 -336 -1003 -339 -1003 -3 0 -155 451 -339 1003
-184 551 -336 1008 -339 1015 -3 9 136 12 678 12 542 0 681 -3 678 -12z"/>
<path d="M3741 1766 c-30 -17 -50 -52 -51 -89 0 -41 57 -97 100 -97 41 0 100
56 100 94 0 80 -80 130 -149 92z"/>
<path d="M4429 985 c-40 -22 -51 -62 -47 -170 3 -92 4 -98 31 -121 38 -33 96
-33 134 0 27 23 28 29 31 121 4 110 -7 149 -49 170 -35 19 -66 18 -100 0z"/>
<path d="M4031 587 c-48 -28 -63 -85 -36 -136 21 -42 60 -53 170 -49 92 3 98
4 121 31 33 38 33 96 0 134 -23 27 -28 28 -128 31 -73 1 -110 -2 -127 -11z"/>
<path d="M4704 590 c-56 -22 -72 -108 -30 -157 23 -27 29 -28 121 -31 61 -3
107 1 126 8 32 14 59 55 59 90 0 33 -26 75 -55 88 -30 14 -189 15 -221 2z"/>
<path d="M4413 306 c-27 -23 -28 -29 -31 -121 -4 -110 7 -149 49 -170 35 -19
63 -19 98 0 42 21 53 60 49 170 -3 92 -4 98 -31 121 -19 16 -40 24 -67 24 -27
0 -48 -8 -67 -24z"/>
</g>
</svg>
