<?xml version="1.0" encoding="UTF-8"?>
<svg version="1.1" xmlns="http://www.w3.org/2000/svg" width="512" height="512">
<path d="M0 0 C40.9486916 -1.07830069 90.14786495 8.62015676 121.78662109 36.60498047 C124.97830309 40.29536278 124.91162109 42.2266665 124.91162109 47.06201172 C122.58384429 52.16399343 118.43128801 55.80922635 114.50268555 59.69799805 C113.75122253 60.44975311 112.99975952 61.20150818 112.2255249 61.9760437 C109.74669638 64.45348168 107.26086443 66.9237649 104.77490234 69.39404297 C103.05239512 71.11281909 101.33032966 72.83203804 99.60868835 74.55168152 C95.08064837 79.0720927 90.54663389 83.58646497 86.01135254 88.09960938 C81.38269116 92.70779623 76.75970049 97.32166422 72.13623047 101.93505859 C63.06690467 110.98294774 53.99144876 120.02466218 44.91162109 129.06201172 C53.88829568 130.6084352 62.82954428 131.85180072 71.91162109 132.56201172 C72.58375641 132.61468327 73.25589172 132.66735481 73.94839478 132.72162247 C89.75438435 133.84245913 103.35794665 132.93791493 115.97314453 122.58456421 C129.05499322 111.2300019 140.3916397 97.77101031 151.01208496 84.1315155 C153.88709054 80.99925873 156.05139375 80.19185735 160.22412109 79.56201172 C165.74766403 80.31096669 168.96699168 83.56257831 172.3449707 87.90429688 C173.71266033 89.94060633 174.98215529 92.00918618 176.22412109 94.12451172 C176.68850586 94.9039917 177.15289062 95.68347168 177.63134766 96.48657227 C196.04252182 128.00712653 207.00314387 164.26011094 204.91162109 201.06201172 C204.84998779 202.17068604 204.84998779 202.17068604 204.78710938 203.30175781 C201.96373027 249.8920233 184.78571916 294.33654942 152.98583984 328.80029297 C151.11040523 330.84525839 149.32129577 332.93820647 147.53662109 335.06201172 C119.05702114 367.59146304 72.91937981 389.0185937 30.21044922 392.85107422 C2.89003916 394.59802762 -23.81372273 393.12965269 -50.08837891 385.06201172 C-50.79236816 384.84706055 -51.49635742 384.63210938 -52.22167969 384.41064453 C-68.23762292 379.40262115 -83.59603342 372.25217188 -97.71337891 363.18701172 C-98.41785156 362.73495361 -99.12232422 362.28289551 -99.84814453 361.81713867 C-104.52364166 358.70342937 -107.50466109 356.31349473 -108.96337891 350.68701172 C-109.1298809 345.85845393 -107.73822941 343.00178429 -104.5969944 339.30855179 C-102.69375052 337.29826127 -100.74388735 335.34654317 -98.77124023 333.40429688 C-98.02953079 332.66214935 -97.28782135 331.92000183 -96.52363586 331.15536499 C-94.07960683 328.71341958 -91.62513678 326.28226182 -89.17041016 323.85107422 C-87.47010517 322.15636667 -85.77046299 320.46099388 -84.07145691 318.76498413 C-79.60479467 314.30975889 -75.12919562 309.8636177 -70.65167236 305.41931152 C-66.08152047 300.87988488 -61.51988256 296.33192039 -56.95751953 291.78466797 C-48.00945003 282.86874248 -39.05220165 273.96209776 -30.08837891 265.06201172 C-30.7095459 265.05170425 -31.33071289 265.04139679 -31.97070312 265.03077698 C-38.46005802 264.92224806 -44.949287 264.80769051 -51.43847656 264.68969727 C-53.85739496 264.64649652 -56.27634095 264.60481152 -58.6953125 264.56469727 C-62.18058569 264.50663327 -65.66572196 264.44304433 -69.15087891 264.37841797 C-70.22515137 264.36170547 -71.29942383 264.34499298 -72.40625 264.32777405 C-76.87148479 264.24049908 -81.10744023 264.1062686 -85.49856567 263.26919556 C-89.12754271 262.71560073 -89.12754271 262.71560073 -91.89718628 264.79525757 C-92.74386871 265.66494171 -93.59055115 266.53462585 -94.46289062 267.43066406 C-95.1767115 268.14492302 -95.1767115 268.14492302 -95.904953 268.87361145 C-97.46484326 270.44482457 -98.99055659 272.04529304 -100.51806641 273.64794922 C-101.59837661 274.74759931 -102.68077774 275.8451988 -103.76516724 276.94082642 C-106.60889713 279.82450648 -109.42499472 282.73372374 -112.23565674 285.64959717 C-115.66066983 289.19294363 -119.11702214 292.70567173 -122.5689106 296.22280312 C-125.25261073 298.95836577 -127.93131694 301.69829343 -130.59616089 304.45223999 C-131.08583847 304.95673172 -131.57551605 305.46122345 -132.08003235 305.98100281 C-133.4022689 307.34389979 -134.72196272 308.70926233 -136.04147339 310.07479858 C-138.86949874 312.82035234 -140.55298638 313.25163784 -144.40087891 313.37451172 C-145.16013672 313.41189453 -145.91939453 313.44927734 -146.70166016 313.48779297 C-150.59979286 312.79238141 -152.9015974 310.61696161 -155.27514648 307.50708008 C-156.52112954 305.66028571 -157.68918879 303.78304187 -158.83837891 301.87451172 C-159.48407837 300.8128479 -159.48407837 300.8128479 -160.14282227 299.72973633 C-161.47433697 297.51640118 -162.78419287 295.29154173 -164.08837891 293.06201172 C-164.6773999 292.06911133 -164.6773999 292.06911133 -165.27832031 291.05615234 C-189.24653833 250.19028939 -195.05202614 198.62766625 -183.82666016 152.84814453 C-177.19112945 127.80691556 -167.15027628 104.19313121 -152.08837891 83.06201172 C-151.67233398 82.47774414 -151.25628906 81.89347656 -150.82763672 81.29150391 C-144.97273983 73.18008054 -138.42986778 65.77007541 -131.51708984 58.55371094 C-130.20172672 57.18035675 -128.89837041 55.79552932 -127.59619141 54.40966797 C-112.17985349 38.4120583 -93.16067961 26.34669451 -73.08837891 17.06201172 C-71.40035156 16.2634375 -71.40035156 16.2634375 -69.67822266 15.44873047 C-47.85918692 5.57274587 -23.87698215 0.7089962 0 0 Z M-78.08837891 38.06201172 C-78.72614258 38.41521484 -79.36390625 38.76841797 -80.02099609 39.13232422 C-93.28513125 46.57791649 -105.05497006 55.58108579 -116.08837891 66.06201172 C-116.61544434 66.55652832 -117.14250977 67.05104492 -117.68554688 67.56054688 C-148.21573188 96.36605951 -170.93527853 139.52990904 -172.26538086 182.09350586 C-172.29148288 183.5113001 -172.31167162 184.92921269 -172.32666016 186.34716797 C-172.33645401 187.11722672 -172.34624786 187.88728546 -172.3563385 188.68067932 C-172.52946962 205.82863249 -172.34397691 222.33637021 -168.08837891 239.06201172 C-167.87938965 239.90779785 -167.67040039 240.75358398 -167.45507812 241.625 C-162.79603127 259.96454399 -154.89095193 276.92916674 -145.08837891 293.06201172 C-142.11337779 293.37224101 -142.11337779 293.37224101 -140.36091614 291.6953125 C-139.72804184 291.05577637 -139.09516754 290.41624023 -138.44311523 289.75732422 C-137.72259476 289.03657715 -137.00207428 288.31583008 -136.25971985 287.57324219 C-135.48774765 286.78578613 -134.71577545 285.99833008 -133.92041016 285.18701172 C-132.72819099 283.98842529 -132.72819099 283.98842529 -131.5118866 282.765625 C-128.96778037 280.20468778 -126.43428499 277.63353035 -123.90087891 275.06201172 C-122.18086321 273.32695498 -120.46016861 271.59257097 -118.73876953 269.85888672 C-114.51405562 265.60104483 -110.29801415 261.33475929 -106.08837891 257.06201172 C-108.6383817 254.43434387 -111.33198183 252.41145102 -114.33837891 250.31201172 C-128.48634113 240.05473911 -137.04996106 226.48856677 -140.08837891 209.06201172 C-141.51360995 189.40758414 -139.41761447 171.30795589 -126.91650391 155.27685547 C-124.72360975 152.7701506 -122.45945618 150.40004262 -120.08837891 148.06201172 C-119.45158203 147.41490234 -118.81478516 146.76779297 -118.15869141 146.10107422 C-108.82661719 137.2336676 -94.68201879 130.98230046 -81.67112732 131.0802002 C-76.25234911 131.45766293 -70.88519543 132.25232578 -65.50887489 133.00982475 C-32.34369732 137.3889443 7.54877857 142.01910883 35.65335298 120.6052072 C47.98976452 110.92829373 58.9175492 99.67535593 69.47412109 88.12451172 C69.93202593 87.6249081 70.38993076 87.12530449 70.8617115 86.61056137 C80.54486112 76.02924204 89.91747019 65.19495573 98.86694336 53.98413086 C99.48768864 53.20745308 100.10843391 52.4307753 100.74798965 51.63056183 C101.58019594 50.56838818 101.58019594 50.56838818 102.42921448 49.48475647 C103.15381788 48.56030275 103.15381788 48.56030275 103.89305973 47.61717319 C105.09425417 46.09300202 105.09425417 46.09300202 104.91162109 44.06201172 C81.25076836 30.30676357 56.37804708 19.99939339 28.91162109 17.06201172 C27.98349609 16.95244141 27.05537109 16.84287109 26.09912109 16.72998047 C-9.76875733 13.07496568 -46.57598496 20.58210137 -78.08837891 38.06201172 Z M155.40161133 102.42675781 C154.66091904 103.16107025 153.92022675 103.89538269 153.15708923 104.65194702 C152.35292068 105.45500275 151.54875214 106.25805847 150.72021484 107.08544922 C149.49045677 108.31021469 149.49045677 108.31021469 148.2358551 109.5597229 C146.49860053 111.2919021 144.76271481 113.02545506 143.02807617 114.76025391 C140.36251372 117.42363008 137.68907323 120.07892129 135.01513672 122.73388672 C133.33300615 124.41308356 131.65134948 126.09275529 129.97021484 127.77294922 C128.76092567 128.97146011 128.76092567 128.97146011 127.52720642 130.19418335 C126.78966629 130.93480011 126.05212616 131.67541687 125.29223633 132.43847656 C124.63795151 133.09133636 123.98366669 133.74419617 123.30955505 134.4168396 C121.69577973 135.95621154 121.69577973 135.95621154 121.91162109 138.06201172 C123.55317879 139.21377372 125.25274506 140.28335632 126.97412109 141.31201172 C141.56271092 150.44152515 150.8360218 163.41007946 155.01708984 180.25732422 C158.91030536 198.66231347 155.67289118 218.04813084 145.91162109 234.06201172 C135.42030436 249.21129896 121.71103448 257.9341288 103.91162109 262.06201172 C97.64900065 263.0865713 91.50020893 263.2450542 85.16162109 263.24951172 C84.22962891 263.26175781 83.29763672 263.27400391 82.33740234 263.28662109 C81.43892578 263.28855469 80.54044922 263.29048828 79.61474609 263.29248047 C78.40286621 263.2986438 78.40286621 263.2986438 77.16650391 263.30493164 C74.6466984 263.03347143 73.05134204 262.40568795 70.91162109 261.06201172 C69.50704372 258.25285698 69.66266952 256.17390638 69.91162109 253.06201172 C71.12084961 250.89819336 71.12084961 250.89819336 72.91162109 249.06201172 C75.1730957 248.5637207 75.1730957 248.5637207 77.81396484 248.55810547 C79.26452271 248.533573 79.26452271 248.533573 80.74438477 248.50854492 C81.76894775 248.50556396 82.79351074 248.50258301 83.84912109 248.49951172 C100.64977574 248.08872826 115.10383389 244.70155725 127.59130859 232.65576172 C137.57143976 221.49952082 142.53357784 208.01859057 141.91162109 193.06201172 C139.929461 177.67418997 133.33849811 166.02451949 121.49755859 156.02294922 C115.73109748 151.72098617 109.78806497 149.10517236 102.91162109 147.06201172 C102.35130471 146.88492298 101.79098833 146.70783424 101.21369267 146.52537918 C97.99958112 145.87843374 94.91168322 145.92897613 91.63316345 145.92156982 C90.53099427 145.91711314 90.53099427 145.91711314 89.40655905 145.91256642 C86.94330973 145.90389192 84.48010909 145.90237221 82.0168457 145.90087891 C80.25087378 145.89624971 78.48490286 145.89122491 76.71893311 145.88583374 C71.91899807 145.87271428 67.11907701 145.86626523 62.31912684 145.86182308 C59.31791353 145.85889058 56.31670403 145.85478535 53.31549263 145.85031891 C43.91874457 145.83664286 34.52200522 145.82697771 25.1252479 145.82311702 C14.29123589 145.81864108 3.45735035 145.80111517 -7.37662321 145.77211642 C-15.75812539 145.75046405 -24.13959209 145.74041078 -32.52112192 145.7390759 C-37.52317984 145.73803008 -42.52511891 145.73217017 -47.52714729 145.71425629 C-52.23772996 145.69771493 -56.94810521 145.69564943 -61.65870667 145.70439529 C-63.38114415 145.70516253 -65.10359307 145.70086461 -66.82600212 145.69093704 C-83.22732289 145.60200144 -98.84904771 148.28998706 -111.27978516 160.02294922 C-122.76052684 172.96667959 -125.91139768 186.98517381 -125.26318359 203.69433594 C-124.37448215 215.73152391 -117.91965654 227.26534917 -109.15869141 235.43701172 C-95.85098141 245.88230862 -82.35649088 248.20459562 -65.95849609 248.21972656 C-64.75285004 248.22480728 -63.54720398 248.229888 -62.30502319 248.23512268 C-59.01608575 248.24857589 -55.72716132 248.25798758 -52.43820858 248.26654005 C-48.99094456 248.27730215 -45.54372643 248.29586928 -42.09649658 248.31436157 C-30.36726533 248.37613095 -18.63804169 248.43038747 -6.90869141 248.46337891 C-0.42106081 248.48170614 6.0664321 248.51060704 12.55396152 248.55138361 C15.98404053 248.57246449 19.4139461 248.58791259 22.84409332 248.59019089 C26.66264607 248.59273081 30.48085656 248.61815771 34.29931641 248.64550781 C35.43702484 248.64250168 36.57473328 248.63949554 37.74691772 248.63639832 C38.7842807 248.6474913 39.82164368 248.65858429 40.89044189 248.67001343 C41.79300343 248.67332357 42.69556496 248.67663372 43.62547684 248.68004417 C46.36523259 249.13780084 47.25025353 249.87575777 48.91162109 252.06201172 C49.34521484 253.99951172 49.34521484 253.99951172 49.34912109 256.06201172 C49.36845703 256.74263672 49.38779297 257.42326172 49.40771484 258.12451172 C48.6934719 260.91399598 47.33165868 261.59133135 44.91162109 263.06201172 C42.79515362 263.18105984 42.79515362 263.18105984 40.48503113 262.83482361 C39.16764859 262.66610528 39.16764859 262.66610528 37.82365227 262.4939785 C36.87065805 262.36810671 35.91766384 262.24223492 34.93579102 262.11254883 C15.83047131 260.25811812 -2.39762547 259.37136918 -18.0625 271.9140625 C-28.44703614 280.7795341 -37.68417184 290.8971566 -46.72845566 301.100757 C-51.27045559 306.21363511 -55.96617509 311.17512115 -60.6757654 316.13321793 C-70.31765345 326.29046902 -79.76608886 336.61125692 -89.08837891 347.06201172 C-87.61778124 351.47380471 -84.16472034 352.6333754 -80.27587891 354.74951172 C-79.4741626 355.1886792 -78.67244629 355.62784668 -77.84643555 356.08032227 C-51.39975757 370.215748 -22.68795537 377.28637342 7.22412109 377.31201172 C7.93337738 377.31268646 8.64263367 377.31336121 9.37338257 377.3140564 C58.89136908 377.23946957 103.6283795 356.33409567 138.36816406 321.60595703 C167.41825079 291.98429455 187.85418574 248.75779536 188.11474609 206.85498047 C188.12533554 205.71691704 188.12533554 205.71691704 188.13613892 204.55586243 C188.45707564 181.62868343 188.45707564 181.62868343 184.91162109 159.06201172 C184.70230957 158.21832031 184.49299805 157.37462891 184.27734375 156.50537109 C179.16391457 136.42801433 171.72329779 116.24263237 159.91162109 99.06201172 C158.00121189 99.06201172 156.66975365 101.16599459 155.40161133 102.42675781 Z " fill="#000000" transform="translate(248.08837890625,58.93798828125)"/>
<path d="M0 0 C1.67050355 1.50040668 3.33250473 3.01035326 4.984375 4.53125 C7.10411462 6.4798079 9.26264719 8.36866708 11.4453125 10.24609375 C17.92596725 15.90690664 23.66847094 22.09108023 29.2578125 28.62109375 C30.07121094 29.54535156 30.88460938 30.46960938 31.72265625 31.421875 C43.0764474 44.42961382 52.77751524 58.59473188 61.2578125 73.62109375 C61.84876709 74.65145752 61.84876709 74.65145752 62.45166016 75.70263672 C80.81509153 107.96783343 92.27121327 146.25000367 92.4609375 183.53515625 C92.46799713 184.45921768 92.47505676 185.38327911 92.48233032 186.33534241 C92.7091167 224.73978194 92.7091167 224.73978194 89.2578125 241.62109375 C88.95979736 243.13413086 88.95979736 243.13413086 88.65576172 244.67773438 C83.96247203 268.00707547 76.73600068 290.25116199 66.2578125 311.62109375 C65.86867676 312.41854004 65.47954102 313.21598633 65.07861328 314.03759766 C59.06944281 326.21595338 52.08609085 337.53241194 44.2578125 348.62109375 C43.49726563 349.69875 42.73671875 350.77640625 41.953125 351.88671875 C28.52535679 370.28226933 12.46539779 387.88194265 -5.7421875 401.62109375 C-6.26893066 402.02956543 -6.79567383 402.43803711 -7.33837891 402.85888672 C-30.74368581 420.99447972 -57.44618851 434.91096123 -85.7421875 443.62109375 C-86.8556958 443.97010742 -86.8556958 443.97010742 -87.99169922 444.32617188 C-96.80032215 447.05204946 -105.67796835 449.123833 -114.7421875 450.80859375 C-115.57089355 450.96352295 -116.39959961 451.11845215 -117.25341797 451.27807617 C-132.76317954 454.004529 -148.13727537 455.00056781 -163.8671875 454.93359375 C-165.20931305 454.93085953 -165.20931305 454.93085953 -166.57855225 454.92807007 C-180.81207117 454.8794239 -194.71994381 454.24677285 -208.7421875 451.62109375 C-209.69641602 451.44416992 -210.65064453 451.26724609 -211.63378906 451.08496094 C-233.00293767 447.00289659 -252.99596395 440.74639358 -272.7421875 431.62109375 C-273.46390137 431.28851563 -274.18561523 430.9559375 -274.92919922 430.61328125 C-290.53657339 423.32959323 -305.27579558 414.36329447 -318.7421875 403.62109375 C-319.65097656 402.904375 -320.55976563 402.18765625 -321.49609375 401.44921875 C-336.25239849 389.61059019 -350.07817182 376.536403 -361.7421875 361.62109375 C-362.54398437 360.61304688 -363.34578125 359.605 -364.171875 358.56640625 C-388.84238279 327.30937024 -405.89693689 290.79116177 -414.5546875 251.93359375 C-414.73749268 251.11761719 -414.92029785 250.30164063 -415.10864258 249.4609375 C-418.8030577 231.69768403 -420.29615571 214.04981475 -420.1796875 195.93359375 C-420.17697845 194.93628235 -420.17426941 193.93897095 -420.17147827 192.91143799 C-420.10556598 176.8445549 -419.15367785 161.37071476 -415.7421875 145.62109375 C-415.55495117 144.72970703 -415.36771484 143.83832031 -415.17480469 142.91992188 C-413.91890392 137.08508066 -412.42299356 131.34717082 -410.7421875 125.62109375 C-410.50161621 124.79512695 -410.26104492 123.96916016 -410.01318359 123.11816406 C-400.51214169 91.18733127 -384.23123509 61.34288371 -362.6953125 35.93359375 C-361.45667131 34.46704258 -360.25334441 32.96930296 -359.1015625 31.43359375 C-356.54294596 28.09392584 -355.28283605 26.80130993 -351.1796875 25.43359375 C-347.7421875 25.62109375 -347.7421875 25.62109375 -344.8671875 27.18359375 C-342.28970682 30.1401157 -341.7421875 31.71077263 -341.7421875 35.62109375 C-344.04693262 40.1986844 -347.40234256 43.91238206 -350.6796875 47.80859375 C-384.82955148 89.23755618 -403.24049764 140.84038921 -403.1171875 194.43359375 C-403.11664368 195.32883759 -403.11609985 196.22408142 -403.11553955 197.14645386 C-403.07257264 212.61058829 -401.96728484 227.45362917 -398.7421875 242.62109375 C-398.52256348 243.65459961 -398.30293945 244.68810547 -398.07666016 245.75292969 C-389.82143503 283.34253935 -373.79205904 318.49509549 -349.7421875 348.62109375 C-348.60716797 350.07322266 -348.60716797 350.07322266 -347.44921875 351.5546875 C-339.12628162 362.0000494 -330.08805907 372.14377313 -319.7421875 380.62109375 C-318.47761719 381.71744141 -318.47761719 381.71744141 -317.1875 382.8359375 C-285.8725336 409.6955225 -248.16857887 426.93286039 -207.7421875 434.62109375 C-206.8965625 434.78625488 -206.0509375 434.95141602 -205.1796875 435.12158203 C-178.52153584 440.09427352 -148.33337465 439.79570516 -121.7421875 434.62109375 C-120.8557959 434.45480469 -119.9694043 434.28851563 -119.05615234 434.1171875 C-56.02347252 421.9847166 -1.31968232 385.21528516 35.03125 332.63671875 C59.1224277 297.02685263 75.11090505 253.13329999 75.49609375 209.84765625 C75.51085251 208.47796944 75.51085251 208.47796944 75.52590942 207.08061218 C75.89731601 163.64514169 68.83226784 124.28147507 48.2578125 85.62109375 C47.92201172 84.9775293 47.58621094 84.33396484 47.24023438 83.67089844 C39.17513204 68.28292804 29.19399537 54.2440808 17.2578125 41.62109375 C16.12732106 40.3133207 15.00214948 39.00092665 13.8828125 37.68359375 C6.08245334 28.76889757 -2.42920822 20.92564206 -11.7421875 13.62109375 C-12.680625 12.85410156 -13.6190625 12.08710937 -14.5859375 11.296875 C-28.39155186 0.24882537 -43.73870389 -9.01175351 -59.76757812 -16.45947266 C-61.10647014 -17.08289839 -62.44102308 -17.71571271 -63.77148438 -18.35693359 C-119.51940738 -45.22324484 -185.39611407 -48.64549625 -243.7421875 -28.37890625 C-269.43285095 -19.2990248 -292.60698702 -5.90925773 -313.7265625 11.24609375 C-321.82113487 17.62109375 -321.82113487 17.62109375 -326.4296875 17.62109375 C-329.7421875 16.62109375 -329.7421875 16.62109375 -331.6796875 14.99609375 C-333.2012764 11.59489504 -333.25968542 9.30826644 -332.7421875 5.62109375 C-268.50129908 -65.32813523 -146.02758182 -72.46975801 0 0 Z " fill="#000000" transform="translate(419.7421875,57.37890625)"/>
<path d="M0 0 C4.87340224 2.95885136 6.53554028 6.71738024 8.4375 11.875 C8.75388428 12.70273926 9.07026855 13.53047852 9.39624023 14.38330078 C10.1475533 16.36210881 10.89068184 18.34403373 11.62792969 20.328125 C12.96345084 23.90218874 14.32565917 27.46497307 15.69328308 31.02682495 C17.0011758 34.44303966 18.2944278 37.86468073 19.58450317 41.28765869 C20.23495468 43.00846187 20.88962196 44.72767759 21.54855347 46.44525146 C22.48523055 48.89336661 23.40290717 51.34784494 24.31640625 53.8046875 C24.60242706 54.54154785 24.88844788 55.2784082 25.18313599 56.03759766 C26.78864976 60.42539708 27.28924415 63.48022141 26 68 C24.30185085 70.59191186 23.1179967 70.96408796 20.125 71.875 C16.18003799 72.03279848 14.94930642 71.63885311 12 69 C8 61.87296417 8 61.87296417 8 58 C0.41 58 -7.18 58 -15 58 C-15.33 59.65 -15.66 61.3 -16 63 C-17.36118625 66.40296561 -18.50309591 68.55830748 -21.25 71 C-25.11756114 72.40638587 -27.26506568 71.5503501 -31 70 C-33.38834249 66.41748627 -33.62025891 64.13144522 -33 60 C-31.81732748 55.88931153 -30.30099471 51.92392116 -28.765625 47.93359375 C-28.11397369 46.20521019 -28.11397369 46.20521019 -27.44915771 44.44190979 C-26.52991569 42.01165982 -25.60500232 39.58354844 -24.67480469 37.1574707 C-23.25560397 33.45213121 -21.85696232 29.73951515 -20.4609375 26.02539062 C-19.5637125 23.66099787 -18.66531395 21.29705004 -17.765625 18.93359375 C-17.14037933 17.27401894 -17.14037933 17.27401894 -16.50250244 15.58091736 C-10.16487174 -0.86142981 -10.16487174 -0.86142981 0 0 Z M-4 29 C-4.67057887 30.7902061 -5.3363469 32.58221489 -6 34.375 C-6.37125 35.37273437 -6.7425 36.37046875 -7.125 37.3984375 C-8.10626277 39.85848061 -8.10626277 39.85848061 -8 42 C-4.7 42 -1.4 42 2 42 C0.35 37.71 -1.3 33.42 -3 29 C-3.33 29 -3.66 29 -4 29 Z " fill="#000000" transform="translate(252,220)"/>
<path d="M0 0 C5.80446134 4.70251062 9.8625239 11.86295338 14 18 C18.44433366 13.97232262 21.71377448 9.34147988 25.1328125 4.42578125 C27 2 27 2 30 0 C33.24358463 -0.34506219 35.33544441 -0.30533635 38.3125 1.0625 C40.19087812 3.21915636 41.09785576 4.98403197 41.3515625 7.859375 C40.35475542 13.92882258 35.35885957 19.22999831 31.71484375 23.9765625 C30.98394531 24.93304688 30.25304687 25.88953125 29.5 26.875 C28.8090625 27.73867187 28.118125 28.60234375 27.40625 29.4921875 C25.81681826 31.86451836 25.81681826 31.86451836 25.953125 34.36328125 C27.45802753 38.15361412 29.7686371 41.10087405 32.25 44.3125 C33.25279655 45.65252876 34.25411738 46.99366323 35.25390625 48.3359375 C35.73102051 48.97241211 36.20813477 49.60888672 36.69970703 50.26464844 C41.1729393 56.23455737 44.03556423 60.36271383 43 68 C41.40970955 70.73883355 40.16534703 70.94967699 37.125 71.875 C33.14380317 72.03424787 32.17685827 71.4202464 29 69 C26.58677962 66.1056206 24.45242948 63.03712605 22.3125 59.9375 C21.16418519 58.29978132 20.01450774 56.66301699 18.86328125 55.02734375 C18.36094971 54.30281006 17.85861816 53.57827637 17.34106445 52.83178711 C15.98907984 50.88718271 15.98907984 50.88718271 14 49 C13.26394531 50.08539063 12.52789062 51.17078125 11.76953125 52.2890625 C10.78401577 53.7344852 9.7983296 55.17979152 8.8125 56.625 C8.08836914 57.69427734 8.08836914 57.69427734 7.34960938 58.78515625 C-0.679391 70.53228431 -0.679391 70.53228431 -5 72.0625 C-8.85209012 71.98224812 -11.27664627 70.72335373 -14 68 C-15.00439934 60.32846708 -12.22779996 56.41571514 -7.75 50.375 C-7.16347656 49.55515625 -6.57695312 48.7353125 -5.97265625 47.890625 C-1.76184611 42.0049533 -1.76184611 42.0049533 0.34960938 39.21972656 C2.48423373 36.4472944 2.48423373 36.4472944 2.77636719 33.10449219 C1.86331217 30.62948142 0.6401685 28.80184116 -0.90625 26.6640625 C-1.77443359 25.43816406 -1.77443359 25.43816406 -2.66015625 24.1875 C-3.88302038 22.48431769 -5.1095663 20.78377262 -6.33984375 19.0859375 C-11.97677696 11.10132832 -11.97677696 11.10132832 -12 6 C-9.25311443 0.11381664 -6.43929712 -0.95006023 0 0 Z " fill="#000000" transform="translate(295,220)"/>
<path d="M0 0 C1.20560326 -0.00574036 1.20560326 -0.00574036 2.43556213 -0.01159668 C4.1325913 -0.01431418 5.82966246 -0.00696418 7.52661133 0.00976562 C10.11700447 0.03115174 12.7046156 0.00997529 15.29492188 -0.015625 C16.94662068 -0.01298114 18.59831776 -0.00785497 20.25 0 C21.02097519 -0.00809692 21.79195038 -0.01619385 22.58628845 -0.02453613 C26.27162304 0.03933793 28.50650664 0.41874838 31.67993164 2.34960938 C33.69140625 4.53125 33.69140625 4.53125 34.31640625 7.96875 C33.69140625 11.53125 33.69140625 11.53125 31.81640625 14.46875 C28.41362046 16.71458862 27.41422008 16.76527671 23.49609375 16.66015625 C22.59616699 16.64154541 21.69624023 16.62293457 20.76904297 16.60375977 C20.08342285 16.57983154 19.39780273 16.55590332 18.69140625 16.53125 C18.7002887 17.14655075 18.70917114 17.7618515 18.71832275 18.39579773 C18.80685896 24.80340276 18.86716669 31.21083385 18.91113281 37.61889648 C18.93124043 40.00991881 18.95853055 42.40089201 18.99316406 44.79174805 C19.04171776 48.22977831 19.06438399 51.66715804 19.08203125 55.10546875 C19.10267639 56.17335129 19.12332153 57.24123383 19.14459229 58.34147644 C19.14683321 65.76360616 19.14683321 65.76360616 16.80786133 69.70605469 C14.37327894 71.80559765 13.30849336 72.1852102 10.12890625 72.09375 C8.98228516 72.09568359 8.98228516 72.09568359 7.8125 72.09765625 C4.88737727 71.31654613 4.24604845 70.08991593 2.69140625 67.53125 C2.3306427 65.11407471 2.3306427 65.11407471 2.35083008 62.39550781 C2.35105667 61.37475159 2.35128326 60.35399536 2.35151672 59.30230713 C2.36700058 58.20738953 2.38248444 57.11247192 2.3984375 55.984375 C2.40268234 54.8580365 2.40692719 53.731698 2.41130066 52.57122803 C2.42809128 48.97432537 2.46574526 45.37798328 2.50390625 41.78125 C2.51895254 39.34245601 2.53264104 36.90365323 2.54492188 34.46484375 C2.5779961 28.48678795 2.62819982 22.50905903 2.69140625 16.53125 C2.0159375 16.55445313 1.34046875 16.57765625 0.64453125 16.6015625 C-0.69351563 16.62863281 -0.69351563 16.62863281 -2.05859375 16.65625 C-2.9403125 16.67945313 -3.82203125 16.70265625 -4.73046875 16.7265625 C-7.45765801 16.51995725 -9.02174783 16.00430841 -11.30859375 14.53125 C-12.87330608 11.40182535 -13.00561333 7.92042777 -12.30859375 4.53125 C-8.97012835 -0.11145553 -5.32391082 -0.05576628 0 0 Z " fill="#000000" transform="translate(186.30859375,219.46875)"/>
</svg>
