<?xml version="1.0" standalone="no"?>
<!DOCTYPE svg PUBLIC "-//W3C//DTD SVG 20010904//EN"
 "http://www.w3.org/TR/2001/REC-SVG-20010904/DTD/svg10.dtd">
<svg version="1.0" xmlns="http://www.w3.org/2000/svg"
 width="512.000000pt" height="512.000000pt" viewBox="0 0 512.000000 512.000000"
 preserveAspectRatio="xMidYMid meet">

<g transform="translate(0.000000,512.000000) scale(0.100000,-0.100000)"
fill="#000000" stroke="none">
<path d="M2270 4832 c-803 -185 -1257 -294 -1280 -308 -19 -11 -48 -39 -65
-63 l-30 -43 -3 -669 c-2 -466 1 -676 8 -690 26 -48 105 -44 129 7 8 18 11
210 11 662 0 350 4 642 8 648 22 33 45 34 980 34 l929 0 21 23 c27 29 28 67 3
98 l-19 24 -589 5 -588 5 210 48 c116 26 516 118 889 204 661 152 680 156 720
142 69 -24 80 -56 84 -241 l4 -158 -236 0 c-249 0 -276 -4 -295 -47 -16 -36
-14 -51 14 -78 l24 -25 348 0 c212 0 363 -4 386 -11 49 -13 105 -63 128 -114
18 -38 19 -113 19 -1617 0 -1157 3 -1584 11 -1602 16 -35 63 -50 99 -31 15 8
30 22 34 30 3 9 6 731 6 1604 0 1746 4 1636 -61 1735 -58 87 -153 140 -270
153 l-57 6 -4 171 c-3 163 -5 174 -31 228 -48 99 -145 159 -251 157 -23 0
-601 -130 -1286 -287z"/>
<path d="M2370 3665 c-367 -78 -642 -341 -737 -705 -36 -136 -36 -324 0 -460
85 -324 311 -568 626 -675 108 -36 205 -48 348 -42 248 10 446 98 624 276 370
371 372 967 4 1337 -125 126 -258 206 -426 255 -95 28 -339 36 -439 14z m242
-158 c59 -48 124 -192 162 -354 l14 -63 -230 0 -230 0 6 38 c14 76 59 209 93
275 61 117 126 153 185 104z m-348 -94 c-33 -78 -84 -258 -84 -300 0 -23 0
-23 -170 -23 l-171 0 12 23 c51 96 163 218 262 286 43 29 161 89 178 91 4 0
-8 -35 -27 -77z m663 29 c80 -41 174 -113 227 -175 46 -55 116 -156 116 -169
0 -5 -74 -8 -165 -8 -163 0 -165 0 -169 23 -3 12 -14 63 -26 112 -18 76 -33
120 -87 253 -6 15 19 6 104 -36z m-772 -722 l0 -220 -185 2 -185 3 -13 55
c-17 73 -19 251 -3 323 l12 57 187 0 187 0 0 -220z m660 119 c3 -55 3 -154 0
-220 l-8 -119 -247 0 -247 0 -7 31 c-8 40 -8 372 0 393 5 14 37 16 254 16
l247 0 8 -101z m528 66 c14 -47 14 -282 -1 -347 l-13 -58 -183 0 -182 0 1 220
0 220 184 -2 185 -3 9 -30z m-1140 -667 c15 -61 42 -146 61 -190 19 -43 32
-78 30 -78 -15 0 -141 64 -181 91 -95 65 -197 175 -257 277 -6 9 28 12 156 12
l163 0 28 -112z m572 75 c-25 -136 -105 -313 -163 -360 -95 -79 -204 67 -276
370 l-6 27 226 0 226 0 -7 -37z m485 32 c0 -27 -120 -173 -190 -232 -57 -47
-237 -150 -246 -140 -2 2 12 41 31 88 18 46 43 125 55 174 12 50 24 96 26 103
2 9 44 12 164 12 88 0 160 -2 160 -5z"/>
<path d="M912 2847 l-22 -23 0 -1330 c0 -1271 1 -1331 19 -1370 22 -49 82
-101 133 -114 23 -7 551 -9 1480 -8 l1443 3 67 33 c77 38 130 92 167 171 26
56 26 57 29 336 3 273 3 281 -18 303 -27 29 -80 30 -106 1 -17 -19 -19 -44
-24 -294 l-5 -273 -30 -43 c-16 -23 -48 -52 -70 -63 -40 -21 -42 -21 -1467
-24 -1419 -2 -1428 -2 -1448 18 -20 20 -20 31 -20 1334 l0 1313 -21 27 c-27
34 -77 36 -107 3z"/>
<path d="M1629 1441 c-17 -13 -23 -29 -23 -56 0 -27 6 -43 23 -56 22 -18 59
-19 926 -19 497 0 911 3 920 6 24 10 46 60 39 89 -14 58 31 55 -955 55 -871 0
-908 -1 -930 -19z"/>
<path d="M1960 1000 c-27 -27 -26 -81 1 -106 20 -18 45 -19 599 -19 554 0 579
1 599 19 27 25 28 79 1 106 -20 20 -33 20 -600 20 -567 0 -580 0 -600 -20z"/>
</g>
</svg>
