<?xml version="1.0" standalone="no"?>
<!DOCTYPE svg PUBLIC "-//W3C//DTD SVG 20010904//EN"
 "http://www.w3.org/TR/2001/REC-SVG-20010904/DTD/svg10.dtd">
<svg version="1.0" xmlns="http://www.w3.org/2000/svg"
 width="512.000000pt" height="512.000000pt" viewBox="0 0 512.000000 512.000000"
 preserveAspectRatio="xMidYMid meet">

<g transform="translate(0.000000,512.000000) scale(0.100000,-0.100000)"
fill="#000000" stroke="none">
<path d="M2105 4940 c-332 -4 -374 -7 -398 -23 -42 -27 -56 -56 -72 -152 -28
-161 -89 -278 -200 -383 -39 -37 -99 -82 -135 -101 -168 -87 -185 -130 -145
-361 130 -754 510 -1365 1075 -1733 144 -93 297 -170 340 -170 60 0 300 135
465 262 401 307 703 770 854 1306 61 221 105 500 87 568 -10 43 -55 86 -125
121 -214 108 -333 270 -376 509 -16 88 -39 127 -89 151 -30 14 -86 16 -473 14
-241 -1 -605 -5 -808 -8z m1220 -177 c46 -271 196 -483 428 -604 75 -39 77
-41 77 -77 0 -59 -37 -267 -69 -392 -155 -598 -473 -1066 -934 -1374 -52 -34
-130 -81 -175 -104 l-81 -43 -63 32 c-642 321 -1093 987 -1211 1789 -8 52 -13
100 -10 106 2 6 25 21 51 33 240 117 403 344 447 623 l6 38 342 3 c188 1 532
3 764 5 l422 2 6 -37z"/>
<path d="M2362 4660 l-424 -5 -28 -31 c-15 -18 -36 -56 -45 -85 -58 -176 -192
-351 -353 -459 -29 -20 -59 -50 -68 -69 -16 -33 -15 -40 10 -165 31 -150 41
-175 77 -195 22 -12 32 -12 56 -2 52 21 56 47 28 164 -14 56 -25 109 -25 118
0 9 24 35 54 58 146 113 283 291 342 446 l29 75 301 0 c165 0 409 3 540 7
l240 6 19 -49 c77 -206 206 -365 415 -512 2 -1 -6 -54 -19 -115 -27 -132 -25
-153 11 -180 22 -17 33 -19 54 -11 45 15 62 52 90 195 25 130 26 137 10 171
-11 23 -41 51 -84 81 -77 52 -188 161 -233 228 -39 57 -103 183 -119 234 -30
94 -61 106 -282 103 -95 -1 -363 -5 -596 -8z"/>
<path d="M2987 4039 c-10 -6 -121 -166 -247 -356 l-228 -346 -128 123 c-71 67
-139 126 -151 131 -45 17 -93 -18 -93 -68 0 -39 7 -47 209 -237 123 -116 149
-136 176 -136 20 0 39 8 52 23 48 51 523 783 523 805 0 12 -11 34 -25 47 -26
26 -58 31 -88 14z"/>
<path d="M3417 3469 c-10 -6 -42 -61 -71 -122 -162 -345 -389 -612 -683 -804
-44 -29 -87 -53 -95 -53 -21 0 -194 115 -278 185 -208 174 -367 379 -496 640
-35 72 -72 136 -81 143 -44 33 -113 -6 -113 -64 0 -36 107 -251 184 -370 173
-265 401 -486 663 -642 115 -69 133 -69 249 4 135 84 228 158 342 268 122 118
186 195 277 331 76 114 215 386 215 422 0 13 -11 35 -25 48 -26 26 -58 31 -88
14z"/>
<path d="M130 2579 c-52 -16 -86 -44 -109 -92 -21 -43 -21 -50 -21 -1045 0
-683 3 -1010 11 -1029 13 -34 55 -80 91 -99 40 -21 746 -21 787 0 64 34 96 89
103 182 l3 31 430 -164 c237 -89 459 -172 494 -183 109 -34 36 -43 1506 170
154 22 304 47 334 56 65 19 170 71 226 111 43 32 1038 926 1067 959 67 77 85
236 36 329 -33 63 -88 118 -147 147 -56 27 -154 35 -219 17 -33 -8 -203 -117
-557 -354 l-510 -341 -105 6 -105 5 -7 60 c-25 200 -172 358 -368 395 -30 6
-291 31 -580 56 l-525 45 -83 34 c-46 18 -168 79 -273 135 -257 138 -340 169
-526 192 l-91 12 -4 126 c-3 117 -5 129 -30 167 -50 77 -57 78 -448 80 -210 1
-359 -2 -380 -8z m698 -151 c9 -9 12 -87 12 -290 l0 -279 25 -24 c13 -14 36
-25 50 -25 14 0 37 11 50 25 23 22 25 31 25 125 0 117 -10 110 133 85 115 -20
226 -62 355 -133 157 -88 318 -166 397 -195 62 -22 128 -30 610 -72 297 -25
563 -53 592 -61 108 -30 200 -139 211 -253 l4 -47 -705 -43 c-387 -24 -720
-41 -739 -37 -19 3 -53 22 -75 41 -68 58 -143 38 -143 -37 0 -43 69 -109 147
-138 54 -21 69 -22 208 -16 152 6 542 30 1095 66 247 16 333 18 453 11 82 -6
156 -7 165 -4 9 4 249 162 532 352 501 336 516 345 570 349 45 3 61 0 89 -20
74 -50 100 -130 66 -202 -12 -25 -168 -171 -503 -474 -267 -240 -507 -454
-532 -475 -57 -48 -147 -92 -225 -111 -33 -8 -409 -65 -835 -127 -577 -83
-790 -110 -835 -106 -57 5 -175 48 -930 336 l-100 39 -5 447 -5 447 -24 19
c-30 24 -62 24 -92 0 l-24 -19 -5 -564 -5 -563 -340 0 -340 0 -3 979 c-1 715
1 982 9 992 16 19 648 21 667 2z"/>
<path d="M395 1098 c-35 -12 -92 -52 -118 -82 -89 -102 -73 -278 34 -369 43
-37 118 -67 169 -67 93 0 198 69 241 158 65 133 -9 309 -150 357 -51 17 -131
19 -176 3z m143 -152 c75 -38 74 -150 0 -196 -39 -24 -69 -25 -108 -5 -42 21
-60 53 -60 103 0 37 6 50 34 78 38 38 85 45 134 20z"/>
</g>
</svg>
