<svg width="26" height="26" viewBox="0 0 26 26" fill="none" xmlns="http://www.w3.org/2000/svg">
<path d="M7.92858 2.12431C10.5181 0.916786 13.4535 0.672871 16.2069 1.43643C18.9602 2.2 21.3507 3.92092 22.9484 6.28968C24.5462 8.65843 25.2463 11.5196 24.9229 14.3584C24.5994 17.1973 23.2736 19.8276 21.184 21.7762C19.0944 23.7249 16.378 24.8639 13.5235 24.9886C10.6689 25.1132 7.86363 24.2152 5.61209 22.4561C3.36055 20.6971 1.81056 18.1923 1.24091 15.3925C0.671261 12.5926 1.11934 9.68132 2.50454 7.18232" stroke="black" stroke-linecap="round" stroke-linejoin="round"/>
<circle cx="4.59844" cy="4.00078" r="1.2" fill="black"/>
<path d="M10.6016 8.19922L16.6016 12.9992L10.6016 17.7992" stroke="black" stroke-width="2" stroke-linecap="round" stroke-linejoin="round"/>
</svg>
