<svg width="596" height="606" viewBox="0 0 596 606" fill="none" xmlns="http://www.w3.org/2000/svg">
<path opacity="0.03" d="M306.465 0C258.955 0 214.046 10.973 174.082 30.4748C192.659 25.6384 218.366 19.3458 238.452 19.3458C365.632 19.3458 469.082 122.731 469.082 249.831C469.082 294.035 456.541 335.327 434.894 370.43C434.685 370.794 434.477 371.106 434.269 371.418C431.615 375.631 428.805 379.791 425.891 383.848C405.753 410.474 370.263 433.356 336.491 440.637C326.864 442.717 316.82 443.861 306.517 443.861C228.149 443.861 164.663 380.415 164.663 302.096C164.663 223.777 228.149 160.331 306.517 160.331C375.363 160.331 432.708 209.319 445.665 274.325C446.342 267.513 446.654 260.544 446.654 253.523C446.654 153.518 378.069 69.5304 285.39 45.9202C166.224 15.6014 49.504 113.11 13.6502 222.841C-25.8462 343.752 22.1323 477.508 134.741 555.775C241.522 629.986 396.75 620.417 495.621 537.262C590.121 457.798 627.432 327.162 593.92 211.192C574.77 144.937 527.416 84.8719 469.707 47.8444C421.208 16.6415 364.123 0 306.465 0Z" fill="black"/>
</svg>
