<svg width="34" height="34" viewBox="0 0 34 34" fill="none" xmlns="http://www.w3.org/2000/svg">
<path d="M10.2381 2.49907C13.6908 0.889049 17.6047 0.563829 21.2758 1.58191C24.9469 2.59999 28.1343 4.89456 30.2646 8.0529C32.3949 11.2112 33.3284 15.0261 32.8972 18.8112C32.4659 22.5964 30.6982 26.1035 27.912 28.7016C25.1258 31.2998 21.504 32.8186 17.6979 32.9848C13.8919 33.151 10.1515 31.9536 7.14945 29.6082C4.1474 27.2628 2.08075 23.9231 1.32122 20.1899C0.561681 16.4568 1.15911 12.5751 3.00606 9.2431" stroke="black" stroke-linecap="round" stroke-linejoin="round"/>
<circle cx="5.79922" cy="5.00039" r="1.6" fill="black"/>
<path d="M13.8008 10.5996L21.8008 16.9996L13.8008 23.3996" stroke="black" stroke-width="2" stroke-linecap="round" stroke-linejoin="round"/>
</svg>
